# xmcd CD database file
#
# Track frame offsets:
#	182
#	13037
#	27147
#	39895
#	49670
#	64920
#	81972
#	97900
#	114067
#	127732
#	138357
#	154770
#
# Disc length: 2259 seconds
#
# Revision: 2
# Processed by: cddbd v1.5.1PL0 Copyright (c) Steve Scherf et al.
# Submitted via: CDex 1.51
#
DISCID=8508d10c
DTITLE=Lynn Anderson - Love Songs
DYEAR=1990
DGENRE=Country
TTITLE0=Top of the world
TTITLE1=Two doors down
TTITLE2=I fall to pieces
TTITLE3=Snowbird
TTITLE4=Desperado
TTITLE5=Blue bayou
TTITLE6=You needed me
TTITLE7=The devil went down to Georgia
TTITLE8=Talking in your sleep
TTITLE9=Heartbreak hotel
TTITLE10=When I dream
TTITLE11=Gone at last
EXTD=YEAR: 1990
EXTT0=
EXTT1=
EXTT2=
EXTT3=
EXTT4=
EXTT5=
EXTT6=
EXTT7=
EXTT8=
EXTT9=
EXTT10=
EXTT11=
PLAYORDER=
